<svg xmlns="http://www.w3.org/2000/svg" width="512" height="512" viewBox="0 0 512 512" version="1.1"><path d="M 8.096 190.699 C 6.907 194.989, 4.734 205.025, 3.267 213 C 0.791 226.458, 0.598 229.513, 0.577 255.500 C 0.557 280.073, 0.829 285.091, 2.801 296.500 C 15.253 368.524, 54.398 429.379, 113.865 469.161 C 156.684 497.806, 203.952 512, 256.524 512 C 303.553 512, 346.521 500.402, 385.962 477.063 C 400.382 468.530, 418.446 455.095, 429.500 444.683 L 437.500 437.147 414.520 414.085 L 391.539 391.023 386.520 395.881 C 362.936 418.702, 328.948 436.207, 294 443.530 C 276.902 447.113, 247.079 448.061, 230 445.564 C 185.462 439.052, 148.490 420.092, 117.492 387.865 C 74.291 342.953, 55.627 277.901, 68.613 217.500 C 70.032 210.900, 71.262 204.427, 71.346 203.116 C 71.493 200.837, 70.257 200.362, 43.500 192.412 C 28.100 187.836, 14.320 183.823, 12.879 183.495 C 10.347 182.918, 10.183 183.165, 8.096 190.699" stroke="none" fill="#4ab0e7" fill-rule="evenodd"/><path d="M 224.708 1.523 C 182.650 6.611, 142.742 22.178, 107.030 47.423 C 98.617 53.370, 80.271 68.702, 76.565 72.884 L 74.629 75.067 80.431 80.930 L 86.233 86.793 78.241 95.849 C 62.921 113.208, 52.018 129.167, 42.288 148.476 C 36.610 159.742, 28.400 179.752, 27.397 184.765 L 26.834 187.581 40.167 191.439 C 47.500 193.561, 54.100 195.343, 54.833 195.398 C 55.646 195.460, 57.497 191.787, 59.571 186 C 68.505 161.070, 84.374 134.772, 102.006 115.681 L 108.303 108.863 113.931 114.431 C 117.026 117.494, 120.029 120, 120.605 120 C 121.180 120, 122.742 118.828, 124.076 117.396 C 125.409 115.964, 129.875 111.981, 134 108.545 C 161.024 86.033, 193.592 71.750, 230 66.441 C 247.208 63.932, 276.999 64.869, 294 68.453 C 329.051 75.844, 362.951 93.311, 386.531 116.131 L 391.563 121 397.484 115.016 L 403.405 109.032 405.811 111.266 C 410.553 115.670, 423.082 131.198, 429.027 140.041 C 439.089 155.004, 447.619 172.282, 454.057 190.738 L 455.884 195.975 448.192 198.328 C 439.179 201.086, 439.542 199.635, 443.396 217.500 C 444.820 224.100, 446.379 235.462, 446.861 242.750 C 447.989 259.822, 446.689 279.238, 443.396 294.500 C 439.563 312.271, 439.281 310.969, 447.492 313.449 C 452.052 314.827, 454.595 316.134, 454.801 317.207 C 455.277 319.675, 446.634 341.090, 440.400 352.889 C 433.024 366.851, 422.962 381.422, 412.449 393.366 L 403.765 403.231 414.597 414.097 L 425.429 424.963 428.322 422.232 C 434.287 416.600, 447.464 400.093, 455.249 388.500 C 464.602 374.571, 476.153 351.634, 481.565 336.245 C 483.643 330.335, 485.448 325.356, 485.576 325.179 C 485.704 325.003, 488.938 325.790, 492.762 326.929 C 496.587 328.068, 500.178 329, 500.743 329 C 502.168 329, 505.565 316.233, 508.726 299 C 511.204 285.489, 511.386 282.556, 511.386 256 C 511.386 229.444, 511.204 226.511, 508.726 213 C 505.565 195.767, 502.168 183, 500.743 183 C 500.178 183, 496.587 183.932, 492.762 185.071 C 488.938 186.210, 485.704 186.997, 485.576 186.821 C 485.448 186.644, 483.643 181.665, 481.565 175.755 C 471.495 147.119, 452.594 115.937, 431.522 93.192 L 425.677 86.884 431.589 80.857 L 437.500 74.830 429.500 67.306 C 411.425 50.306, 384.666 32.553, 361.500 22.195 C 337.629 11.521, 309.322 3.819, 283.789 1.052 C 270.792 -0.356, 238.084 -0.096, 224.708 1.523" stroke="none" fill="#e669a2" fill-rule="evenodd"/></svg>